<svg xmlns="http://www.w3.org/2000/svg" width="1200" height="630" viewBox="0 0 1200 630" fill="none">
  <defs>
    <linearGradient id="panel" x1="120" y1="60" x2="1040" y2="590" gradientUnits="userSpaceOnUse">
      <stop stop-color="#101826" />
      <stop offset="1" stop-color="#20385f" />
    </linearGradient>
    <radialGradient id="flare" cx="0" cy="0" r="1" gradientUnits="userSpaceOnUse" gradientTransform="translate(1020 112) rotate(118.469) scale(330 412)">
      <stop stop-color="#ff785a" stop-opacity="0.36" />
      <stop offset="1" stop-color="#ff785a" stop-opacity="0" />
    </radialGradient>
    <pattern id="dots" width="28" height="28" patternUnits="userSpaceOnUse">
      <circle cx="2" cy="2" r="2" fill="rgba(248, 244, 236, 0.08)" />
    </pattern>
  </defs>
  <rect width="1200" height="630" rx="36" fill="#F8F1E4" />
  <rect x="42" y="42" width="1116" height="546" rx="34" fill="url(#panel)" />
  <rect x="42" y="42" width="1116" height="546" rx="34" fill="url(#flare)" />
  <rect x="42" y="42" width="1116" height="546" rx="34" fill="url(#dots)" />
  <rect x="92" y="86" width="140" height="140" rx="32" fill="rgba(255, 120, 90, 0.18)" />
  <text x="162" y="177" text-anchor="middle" font-size="74" font-family="Arial, sans-serif">??</text>
  <rect x="272" y="96" width="278" height="44" rx="22" fill="#f8f4ec" />
  <text x="411" y="125" text-anchor="middle" font-size="20" font-family="'IBM Plex Mono', monospace" letter-spacing="4" fill="#101826">MALO</text>
  <text x="92" y="310" font-size="76" font-weight="700" font-family="'Space Grotesk', Arial, sans-serif" fill="#f8f4ec">Chaos Strategist</text>
  <text x="92" y="356" font-size="28" font-family="'IBM Plex Mono', monospace" fill="rgba(248, 244, 236, 0.78)">You plan too much to be random</text>
  <text x="92" y="430" font-size="32" font-family="'Space Grotesk', Arial, sans-serif" fill="rgba(248, 244, 236, 0.92)">Turns every silly idea into a polished launch,</text>
  <text x="92" y="472" font-size="32" font-family="'Space Grotesk', Arial, sans-serif" fill="rgba(248, 244, 236, 0.92)">then calls it an experiment.</text>
  <rect x="822" y="118" width="252" height="252" rx="36" fill="rgba(255, 255, 255, 0.56)" />
  <rect x="850" y="146" width="196" height="18" rx="9" fill="rgba(248, 244, 236, 0.11)" />
  <rect x="850" y="184" width="158" height="18" rx="9" fill="rgba(248, 244, 236, 0.11)" />
  <rect x="850" y="234" width="122" height="122" rx="24" fill="#ff785a" />
  <path d="M903 270C903 252.327 917.327 238 935 238H965C982.673 238 997 252.327 997 270V310C997 327.673 982.673 342 965 342H935C917.327 342 903 327.673 903 310V270Z" fill="rgba(255, 255, 255, 0.82)"/>
  <path d="M922 289H978" stroke="#ff785a" stroke-width="10" stroke-linecap="round"/>
  <path d="M950 261V317" stroke="#ff785a" stroke-width="10" stroke-linecap="round"/>
  <rect x="92" y="500" width="290" height="56" rx="28" fill="#ff785a" />
  <text x="237" y="536" text-anchor="middle" font-size="24" font-weight="700" font-family="'Space Grotesk', Arial, sans-serif" fill="#09111f">Take the full test</text>
  <text x="92" y="586" font-size="22" font-family="'IBM Plex Mono', monospace" fill="rgba(248, 244, 236, 0.72)">Built by the team behind sbtitest.co</text>
</svg>
